HIERARCHY
ROOT Haolin_28_06:Solving:Hips
{
	OFFSET 0.000000 0.000000 0.000000
	CHANNELS 6 Xposition Yposition Zposition Xrotation Yrotation Zrotation
	JOINT Haolin_28_06:Solving:Spine
	{
		OFFSET 0.000000 -12.181966 2.015561
		CHANNELS 6 Xposition Yposition Zposition Xrotation Yrotation Zrotation
		JOINT Haolin_28_06:Solving:Spine1
		{
			OFFSET 0.000000 -8.890296 1.567602
			CHANNELS 6 Xposition Yposition Zposition Xrotation Yrotation Zrotation
			JOINT Haolin_28_06:Solving:Spine2
			{
				OFFSET 0.000000 -8.993092 0.786796
				CHANNELS 6 Xposition Yposition Zposition Xrotation Yrotation Zrotation
				JOINT Haolin_28_06:Solving:Spine3
				{
					OFFSET 0.000000 -9.027443 0.000000
					CHANNELS 6 Xposition Yposition Zposition Xrotation Yrotation Zrotation
					JOINT Haolin_28_06:Solving:Neck
					{
						OFFSET 0.000000 -11.606712 -1.160669
						CHANNELS 6 Xposition Yposition Zposition Xrotation Yrotation Zrotation
						JOINT Haolin_28_06:Solving:Neck1
						{
							OFFSET 0.000000 -7.471592 -0.653680
							CHANNELS 6 Xposition Yposition Zposition Xrotation Yrotation Zrotation
							JOINT Haolin_28_06:Solving:Head
							{
								OFFSET 0.000000 -7.386181 -1.302382
								CHANNELS 6 Xposition Yposition Zposition Xrotation Yrotation Zrotation
								JOINT Haolin_28_06:Solving:HeadEnd
								{
									OFFSET 0.000000 -9.728081 0.000002
									CHANNELS 6 Xposition Yposition Zposition Xrotation Yrotation Zrotation
									End Site
									{
										OFFSET 0.000000 -9.728081 0.000002
									}
								}
							}
						}
					}
					JOINT Haolin_28_06:Solving:RightShoulder
					{
						OFFSET 0.000000 -8.290508 -5.270916
						CHANNELS 6 Xposition Yposition Zposition Xrotation Yrotation Zrotation
						JOINT Haolin_28_06:Solving:RightArm
						{
							OFFSET -19.261074 -0.000008 0.000000
							CHANNELS 6 Xposition Yposition Zposition Xrotation Yrotation Zrotation
							JOINT Haolin_28_06:Solving:RightForeArm
							{
								OFFSET -30.691700 -0.000011 0.000000
								CHANNELS 6 Xposition Yposition Zposition Xrotation Yrotation Zrotation
								JOINT Haolin_28_06:Solving:RightHand
								{
									OFFSET -20.216934 -0.000008 0.000000
									CHANNELS 6 Xposition Yposition Zposition Xrotation Yrotation Zrotation
									JOINT Haolin_28_06:Solving:RightHandThumb1
									{
										OFFSET -4.948814 2.881329 -3.679893
										CHANNELS 6 Xposition Yposition Zposition Xrotation Yrotation Zrotation
										End Site
										{
											OFFSET -7.039886 -0.000004 -7.104978
										}
									}
									JOINT Haolin_28_06:Solving:RightHandMiddle1
									{
										OFFSET -13.196846 -0.000004 0.084595
										CHANNELS 6 Xposition Yposition Zposition Xrotation Yrotation Zrotation
										End Site
										{
											OFFSET -10.002037 -0.000004 0.000000
										}
									}
								}
							}
						}
					}
					JOINT Haolin_28_06:Solving:LeftShoulder
					{
						OFFSET 0.000000 -8.290508 -5.270916
						CHANNELS 6 Xposition Yposition Zposition Xrotation Yrotation Zrotation
						JOINT Haolin_28_06:Solving:LeftArm
						{
							OFFSET 19.261074 -0.000008 0.000000
							CHANNELS 6 Xposition Yposition Zposition Xrotation Yrotation Zrotation
							JOINT Haolin_28_06:Solving:LeftForeArm
							{
								OFFSET 30.691700 -0.000011 0.000000
								CHANNELS 6 Xposition Yposition Zposition Xrotation Yrotation Zrotation
								JOINT Haolin_28_06:Solving:LeftHand
								{
									OFFSET 20.216934 -0.000008 0.000000
									CHANNELS 6 Xposition Yposition Zposition Xrotation Yrotation Zrotation
									JOINT Haolin_28_06:Solving:LeftHandThumb1
									{
										OFFSET 4.948814 2.881329 -3.679893
										CHANNELS 6 Xposition Yposition Zposition Xrotation Yrotation Zrotation
										End Site
										{
											OFFSET 7.039886 -0.000004 -7.104978
										}
									}
									JOINT Haolin_28_06:Solving:LeftHandMiddle1
									{
										OFFSET 13.196846 -0.000004 0.084595
										CHANNELS 6 Xposition Yposition Zposition Xrotation Yrotation Zrotation
										End Site
										{
											OFFSET 10.002037 -0.000004 0.000000
										}
									}
								}
							}
						}
					}
				}
			}
		}
	}
	JOINT Haolin_28_06:Solving:RightUpLeg
	{
		OFFSET -10.083070 0.000000 0.000000
		CHANNELS 6 Xposition Yposition Zposition Xrotation Yrotation Zrotation
		JOINT Haolin_28_06:Solving:RightLeg
		{
			OFFSET 0.000000 47.042522 -0.000008
			CHANNELS 6 Xposition Yposition Zposition Xrotation Yrotation Zrotation
			JOINT Haolin_28_06:Solving:RightFoot
			{
				OFFSET 0.000000 38.766415 -0.000006
				CHANNELS 6 Xposition Yposition Zposition Xrotation Yrotation Zrotation
				JOINT Haolin_28_06:Solving:RightForeFoot
				{
					OFFSET 0.000000 3.531212 -0.000000
					CHANNELS 6 Xposition Yposition Zposition Xrotation Yrotation Zrotation
					JOINT Haolin_28_06:Solving:RightToeBase
					{
						OFFSET 0.000000 0.000000 -13.829352
						CHANNELS 6 Xposition Yposition Zposition Xrotation Yrotation Zrotation
						JOINT Haolin_28_06:Solving:RightToeBaseEnd
						{
							OFFSET 0.000000 0.000000 -4.034167
							CHANNELS 6 Xposition Yposition Zposition Xrotation Yrotation Zrotation
							End Site
							{
								OFFSET 0.000000 -4.034164 0.000004
							}
						}
					}
				}
			}
		}
	}
	JOINT Haolin_28_06:Solving:LeftUpLeg
	{
		OFFSET 10.083070 0.000000 0.000000
		CHANNELS 6 Xposition Yposition Zposition Xrotation Yrotation Zrotation
		JOINT Haolin_28_06:Solving:LeftLeg
		{
			OFFSET 0.000000 47.042522 -0.000008
			CHANNELS 6 Xposition Yposition Zposition Xrotation Yrotation Zrotation
			JOINT Haolin_28_06:Solving:LeftFoot
			{
				OFFSET 0.000000 38.766415 -0.000006
				CHANNELS 6 Xposition Yposition Zposition Xrotation Yrotation Zrotation
				JOINT Haolin_28_06:Solving:LeftForeFoot
				{
					OFFSET 0.000000 3.531212 -0.000000
					CHANNELS 6 Xposition Yposition Zposition Xrotation Yrotation Zrotation
					JOINT Haolin_28_06:Solving:LeftToeBase
					{
						OFFSET 0.000000 0.000000 -13.829352
						CHANNELS 6 Xposition Yposition Zposition Xrotation Yrotation Zrotation
						JOINT Haolin_28_06:Solving:LeftToeBaseEnd
						{
							OFFSET 0.000000 0.000000 -4.855067
							CHANNELS 6 Xposition Yposition Zposition Xrotation Yrotation Zrotation
							End Site
							{
								OFFSET 0.000000 -4.855064 0.000004
							}
						}
					}
				}
			}
		}
	}
}
MOTION
Frames: 4
Frame Time: 0.041667
28.222843 -98.237259 -94.375916 85.324950 6.734845 -3.108694 -0.000002 -12.181980 2.015539 16.089088 -0.168850 2.810290 -0.000002 -8.890285 1.567592 0.231865 -0.137000 -0.049041 0.000001 -8.993090 0.786799 -0.247697 -1.790188 1.266124 -0.000002 -9.027436 0.000007 1.526967 -1.528505 4.066092 -0.000001 -11.606763 -1.160653 -7.639666 3.009426 -0.093934 -0.000002 -7.471601 -0.653685 -0.966759 1.481181 -0.935543 -0.000003 -7.386213 -1.302389 5.475283 0.291949 -1.660338 -0.000004 -9.728104 0.000002 0.000001 -0.000000 -0.000000 -0.000006 -8.290531 -5.270885 -0.000010 16.130591 14.393193 -19.261068 -0.000010 0.000017 -53.722163 -51.470233 -111.552050 -30.691683 -0.000011 0.000006 -385.251602 -59.805457 -382.179246 -20.216934 -0.000015 0.000015 6.582474 -13.052532 27.064527 -4.948802 2.881321 -3.679862 -0.000002 0.000005 -0.000002 -13.196850 0.000007 0.084621 -0.000005 -0.000003 -0.000005 -0.000006 -8.290512 -5.270889 -0.000004 -6.423600 -10.663209 19.261068 -0.000017 0.000008 -46.556239 48.988142 101.622246 30.691710 -0.000014 0.000013 29.867652 45.868955 -22.400678 20.216927 -0.000032 0.000017 5.067393 7.810803 -33.123825 4.948806 2.881325 -3.679876 0.000004 0.000002 -0.000000 13.196846 0.000001 0.084609 0.000002 0.000003 0.000000 -10.083071 0.000007 -0.000024 5.574099 15.705214 8.795548 0.000003 47.042530 -0.000030 7.334578 -0.000001 -0.000001 -0.000005 38.766415 -0.000018 -0.444517 0.457491 4.934917 0.000002 3.531204 -0.000026 0.000002 -0.000000 0.000001 -0.000002 0.000009 -13.829365 -0.227517 -0.000001 0.000001 -0.000002 0.000000 -4.034152 0.000002 -0.000001 -0.000001 10.083075 -0.000020 -0.000039 1.190005 -8.785619 2.522225 0.000003 47.042534 0.000017 10.765602 -0.000000 -0.000001 -0.000000 38.766411 0.000004 1.689404 -1.956954 3.538086 0.000009 3.531212 0.000009 0.000001 -0.000000 0.000000 -0.000002 0.000011 -13.829378 1.263654 -0.000000 -0.000000 -0.000001 -0.000015 -4.855059 -0.000000 0.000000 -0.000000 
28.227818 -98.191833 -94.367775 85.290191 6.708753 -3.115880 0.000001 -12.181966 2.015549 16.105297 -0.162837 2.801557 0.000006 -8.890284 1.567599 0.240647 -0.133991 -0.056040 0.000001 -8.993091 0.786807 -0.262788 -1.738005 1.262668 -0.000002 -9.027445 -0.000010 1.505847 -1.511197 4.065065 -0.000002 -11.606740 -1.160629 -7.635028 2.895855 -0.079373 -0.000000 -7.471624 -0.653703 -0.935771 1.224696 -0.939183 0.000004 -7.386190 -1.302365 5.538020 0.267577 -1.620169 -0.000001 -9.728142 -0.000021 0.000001 -0.000000 -0.000000 0.000004 -8.290520 -5.270890 -0.000011 16.117402 14.332064 -19.261076 -0.000003 -0.000002 -53.999940 -51.536110 -112.101422 -30.691700 0.000007 -0.000004 -386.064750 -59.324305 -382.815874 -20.216940 -0.000002 -0.000007 7.002508 -13.315666 28.071321 -4.948787 2.881331 -3.679839 0.000002 -0.000000 0.000006 -13.196867 -0.000004 0.084651 0.000001 0.000000 0.000002 0.000002 -8.290516 -5.270890 -0.000004 -6.366319 -10.385550 19.261063 0.000008 0.000003 -47.072486 50.075846 101.618708 30.691719 -0.000022 -0.000020 28.853653 45.639819 -21.500641 20.216913 -0.000009 0.000014 5.154249 7.536069 -34.519394 4.948821 2.881339 -3.679877 0.000007 -0.000007 -0.000003 13.196869 -0.000002 0.084581 0.000007 -0.000006 -0.000000 -10.083065 0.000002 -0.000031 5.631633 15.671601 8.807125 0.000002 47.042553 -0.000011 7.367123 0.000000 -0.000000 -0.000003 38.766422 -0.000005 -0.497955 0.538292 4.910149 -0.000003 3.531196 0.000002 0.000000 -0.000003 0.000000 -0.000013 0.000006 -13.829356 -0.206064 -0.000005 0.000001 -0.000007 -0.000000 -4.034165 -0.000000 0.000005 0.000001 10.083076 0.000006 -0.000007 1.209101 -8.776527 2.534223 -0.000003 47.042534 0.000011 10.856495 0.000001 -0.000001 -0.000001 38.766430 -0.000010 1.623963 -1.949125 3.531185 -0.000002 3.531212 0.000006 0.000002 0.000001 -0.000000 -0.000001 0.000006 -13.829339 1.265909 -0.000000 0.000000 0.000005 0.000008 -4.855048 0.000000 0.000001 0.000000 
28.232920 -98.149452 -94.359787 85.263915 6.684098 -3.127896 -0.000004 -12.181989 2.015536 16.120169 -0.153213 2.792977 -0.000001 -8.890304 1.567598 0.243501 -0.131102 -0.058252 -0.000004 -8.993098 0.786801 -0.263961 -1.679711 1.257506 -0.000005 -9.027420 0.000012 1.474911 -1.484963 4.059637 -0.000001 -11.606702 -1.160653 -7.657771 2.756039 -0.048224 -0.000001 -7.471584 -0.653676 -0.897652 0.951569 -0.947474 0.000004 -7.386202 -1.302396 5.617768 0.243315 -1.587523 -0.000001 -9.728096 -0.000010 0.000001 0.000001 -0.000000 -0.000001 -8.290478 -5.270905 -0.000009 16.125918 14.300423 -19.261074 -0.000020 0.000015 -54.255334 -51.384647 -112.580533 -30.691689 -0.000002 -0.000009 -386.797219 -59.081813 -383.427313 -20.216927 -0.000018 0.000010 7.284539 -13.423720 28.838438 -4.948820 2.881329 -3.679881 -0.000000 -0.000000 0.000003 -13.196861 -0.000005 0.084600 0.000007 -0.000000 -0.000000 -0.000001 -8.290474 -5.270906 0.000001 -6.339210 -10.137998 19.261080 -0.000021 -0.000017 -47.286568 50.085217 101.800179 30.691687 -0.000014 -0.000006 29.197044 45.379435 -21.690099 20.216949 -0.000007 -0.000002 5.007712 7.051082 -35.520119 4.948793 2.881322 -3.679868 0.000001 0.000000 -0.000007 13.196854 -0.000009 0.084607 0.000008 0.000001 -0.000000 -10.083078 -0.000032 -0.000025 5.671566 15.650702 8.825667 0.000003 47.042522 0.000005 7.406971 -0.000000 -0.000001 0.000000 38.766422 -0.000020 -0.554735 0.598260 4.884415 0.000004 3.531219 -0.000000 -0.000000 -0.000001 0.000000 -0.000005 0.000012 -13.829364 -0.195357 -0.000002 0.000001 0.000001 0.000015 -4.034180 0.000000 0.000003 0.000001 10.083073 -0.000019 -0.000024 1.218587 -8.771597 2.549947 -0.000004 47.042500 0.000014 10.947323 -0.000000 -0.000001 -0.000003 38.766422 0.000016 1.561474 -1.937492 3.520471 0.000003 3.531212 -0.000009 0.000001 0.000000 -0.000000 0.000002 0.000019 -13.829351 1.268018 0.000000 -0.000000 -0.000000 -0.000000 -4.855075 -0.000001 0.000001 -0.000000 
28.236170 -98.108459 -94.353546 85.237803 6.671911 -3.143515 -0.000002 -12.181962 2.015552 16.128957 -0.149335 2.795084 -0.000000 -8.890319 1.567603 0.243014 -0.128906 -0.055151 0.000002 -8.993072 0.786786 -0.283413 -1.606255 1.254167 0.000002 -9.027444 0.000017 1.452287 -1.460571 4.047285 0.000006 -11.606687 -1.160701 -7.615777 2.620286 -0.029675 -0.000000 -7.471623 -0.653675 -0.882263 0.639578 -0.961706 0.000004 -7.386185 -1.302388 5.678291 0.216131 -1.553191 -0.000002 -9.728127 -0.000020 0.000001 -0.000001 0.000000 0.000005 -8.290474 -5.270956 -0.000005 16.103663 14.283413 -19.261072 0.000014 0.000010 -54.414413 -51.051344 -112.933961 -30.691690 -0.000013 0.000004 -387.314292 -59.118211 -383.904607 -20.216938 -0.000020 -0.000011 7.436654 -13.358010 29.465177 -4.948800 2.881328 -3.679899 0.000000 0.000005 -0.000001 -13.196847 -0.000006 0.084594 -0.000003 0.000001 -0.000001 0.000006 -8.290470 -5.270956 0.000001 -6.223077 -10.074462 19.261059 -0.000007 -0.000016 -47.430507 49.823228 101.886485 30.691687 -0.000017 -0.000005 28.677594 45.481991 -21.306270 20.216955 -0.000008 0.000002 5.235248 7.084620 -36.609240 4.948793 2.881319 -3.679870 0.000003 0.000005 -0.000008 13.196834 -0.000019 0.084588 -0.000003 0.000001 -0.000006 -10.083071 -0.000004 -0.000024 5.705020 15.628526 8.849468 -0.000003 47.042538 -0.000012 7.449731 0.000002 -0.000000 -0.000006 38.766415 -0.000027 -0.609629 0.640218 4.882773 -0.000001 3.531204 0.000007 0.000001 0.000002 0.000001 0.000006 0.000008 -13.829377 -0.206279 -0.000000 -0.000001 -0.000015 0.000007 -4.034173 -0.000001 -0.000002 0.000001 10.083069 -0.000008 0.000001 1.232273 -8.798493 2.565602 -0.000004 47.042522 0.000009 11.030863 0.000000 -0.000001 0.000007 38.766426 -0.000003 1.515155 -1.900944 3.490588 -0.000007 3.531212 -0.000020 -0.000001 -0.000000 0.000000 0.000000 0.000020 -13.829358 1.253448 0.000001 -0.000000 -0.000009 -0.000008 -4.855067 -0.000001 -0.000001 0.000000 
